PathFileType	4	(X/Y/Z)	C:/Users/opensim2020/Desktop/walking_exp_matlab/subject06_walking17_straight_01.trc	
DataRate	CameraRate	NumFrames	NumMarkers	Units	OrigDataRate	OrigDataStartFrame	OrigNumFrames	
100.00	100.00	6	45	mm	100.00	1095	305	
Frame#	Time	LFHD			RFHD			LBHD			RBHD			C7			T10			CLAV			STRN			RBAK			LSHO			LUPA			LELB			LFRM			LWRA			LWRB			LFIN			RSHO			RUPA			RELB			RFRM			RWRA			RWRB			RFIN			LASI			RASI			LPSI			RPSI			LTHI			LKNE			LTIB			LANK			LHEE			LTOE			RTHI			RKNE			RTIB			RANK			RHEE			RTOE			*39			*40			*41			*42			*43			*44			
		X1	Y1	Z1	X2	Y2	Z2	X3	Y3	Z3	X4	Y4	Z4	X5	Y5	Z5	X6	Y6	Z6	X7	Y7	Z7	X8	Y8	Z8	X9	Y9	Z9	X10	Y10	Z10	X11	Y11	Z11	X12	Y12	Z12	X13	Y13	Z13	X14	Y14	Z14	X15	Y15	Z15	X16	Y16	Z16	X17	Y17	Z17	X18	Y18	Z18	X19	Y19	Z19	X20	Y20	Z20	X21	Y21	Z21	X22	Y22	Z22	X23	Y23	Z23	X24	Y24	Z24	X25	Y25	Z25	X26	Y26	Z26	X27	Y27	Z27	X28	Y28	Z28	X29	Y29	Z29	X30	Y30	Z30	X31	Y31	Z31	X32	Y32	Z32	X33	Y33	Z33	X34	Y34	Z34	X35	Y35	Z35	X36	Y36	Z36	X37	Y37	Z37	X38	Y38	Z38	X39	Y39	Z39	X40	Y40	Z40	X41	Y41	Z41	X42	Y42	Z42	X43	Y43	Z43	X44	Y44	Z44	X45	Y45	Z45	

115	1.140	-1032.92651	-200.54477	1675.36890	-902.89063	-212.40999	1654.80737	-1050.60388	-330.53464	1618.54761	-922.70245	-341.46252	1602.58667	-999.77081	-335.20667	1460.04968	-994.59033	-378.55963	1132.62878	-997.94763	-226.57231	1379.99158	-1009.94641	-191.23720	1203.63049	-923.32043	-412.31796	1289.03076	-1159.50183	-274.76883	1417.37878	-1231.55408	-262.47726	1214.89990	-1242.50964	-252.38481	1102.01099	-1244.91650	-174.92516	972.35187	-1177.90735	-83.97731	897.18597	-1225.04517	-126.27901	865.35193	-1207.46387	-55.96407	810.98315	-837.26855	-272.88086	1410.63074	-752.92493	-312.24792	1211.32678	-740.93658	-303.26730	1089.71338	-722.86560	-290.09723	970.04865	-751.55872	-233.98947	828.99945	-712.28235	-288.57455	832.41486	-708.75031	-253.32300	755.44843	-1111.57068	-210.75436	967.30151	-891.38959	-199.91029	973.97675	-1076.89661	-367.35574	995.89124	-908.70947	-352.80487	1003.34167	-1167.42529	-257.03766	650.13647	-1148.94434	-237.63712	488.41666	-1147.22412	-402.94705	302.47516	-1115.03040	-507.14587	163.27042	-1064.78796	-545.48291	168.75267	-1128.25769	-413.10577	56.45293	-835.55493	-254.20813	640.73315	-857.92645	-251.41533	514.32446	-866.94330	-284.54028	250.69603	-920.71545	-278.80060	65.46697	-967.09436	-315.27466	41.81531	-922.33691	-121.72818	32.17024	-981.34875	-306.74710	1706.82751															 
116	1.150	-1032.10889	-195.40910	1675.60120	-902.04877	-207.13503	1655.17432	-1049.47668	-325.56314	1619.06982	-921.56390	-336.39557	1603.25549	-998.44049	-330.44894	1460.51062	-993.09918	-373.88675	1133.15918	-996.97406	-221.75331	1380.41418	-1008.86060	-186.51382	1203.99573	-921.59387	-407.26883	1289.50696	-1158.28821	-270.70654	1417.62976	-1230.66382	-259.03174	1215.32739	-1241.79150	-249.31001	1102.55774	-1245.32642	-172.59286	972.34119	-1179.10266	-81.53348	896.41577	-1225.97034	-124.38626	864.97705	-1208.85864	-54.42976	810.00293	-836.12628	-267.61829	1411.21326	-751.59216	-306.20969	1211.87610	-739.60358	-296.95721	1090.26355	-721.54486	-283.39902	970.69843	-750.42352	-226.89349	829.75830	-711.10858	-281.27396	832.81476	-707.50586	-245.91263	756.16626	-1109.98608	-205.56102	967.94769	-889.93860	-195.29887	974.07922	-1075.57996	-362.63797	996.53406	-907.50922	-348.05585	1003.64484	-1166.42932	-250.31921	651.05054	-1147.41553	-229.73935	489.52399	-1145.86304	-392.07602	300.88766	-1113.75293	-493.36377	159.47693	-1063.36279	-531.54578	163.56497	-1128.71069	-396.03940	56.04103	-835.00452	-251.27571	640.67786	-857.41040	-249.44749	514.23016	-866.57404	-284.58435	251.04630	-920.64923	-279.01987	65.49777	-967.12305	-315.44937	41.79564	-922.10498	-121.90865	32.30049	-980.32678	-301.49445	1707.40198															 
117	1.160	-1031.34131	-190.37761	1675.90552	-901.28595	-201.94234	1655.59485	-1048.48767	-320.73004	1619.51025	-920.49927	-331.21658	1603.81128	-997.17316	-325.54703	1460.81482	-991.55566	-369.07550	1133.44922	-996.01025	-216.93161	1380.72791	-1007.70581	-181.81972	1204.33679	-919.92029	-402.21622	1289.97119	-1157.15991	-266.58319	1417.98120	-1229.81287	-255.58795	1215.72131	-1241.15955	-246.21170	1102.89221	-1245.52136	-170.14740	972.31403	-1179.96582	-79.40734	895.37128	-1227.07520	-122.72748	864.47070	-1210.44946	-53.07968	808.87665	-835.04437	-262.38684	1411.77893	-750.29675	-300.41681	1212.40613	-738.31305	-290.72824	1090.80237	-720.32001	-276.72021	971.27771	-749.27893	-219.77454	830.53253	-709.63245	-274.46054	833.48834	-706.35620	-238.45978	756.84528	-1108.52075	-200.85138	968.39661	-888.47980	-190.81999	974.06323	-1074.39624	-357.89673	997.09521	-906.29919	-343.46359	1003.93915	-1165.44360	-243.65083	651.94568	-1145.92224	-221.87894	490.63815	-1144.50378	-380.84982	298.98163	-1112.55725	-479.01175	155.20340	-1062.03882	-517.08167	157.82762	-1128.87524	-378.96106	54.93079	-834.52618	-248.47153	640.62250	-857.00800	-247.61664	514.23474	-866.58710	-283.99808	250.93529	-920.64685	-279.22827	65.55907	-967.19873	-315.46582	41.74713	-922.29279	-121.94895	32.12225	-979.37738	-296.32550	1707.84998															 
118	1.170	-1030.65991	-185.44156	1676.13489	-900.59949	-196.70932	1655.91724	-1047.50293	-315.85477	1619.84741	-919.46564	-326.14542	1604.25427	-995.92096	-320.76495	1461.16565	-990.00031	-364.38904	1133.79358	-994.99084	-212.17363	1381.03638	-1006.63800	-177.10953	1204.60168	-918.28314	-397.25821	1290.40295	-1156.07202	-262.36713	1418.29614	-1229.02625	-252.22371	1216.00232	-1240.75366	-243.14693	1103.25452	-1246.29114	-168.09567	972.01300	-1181.04517	-77.56533	894.06439	-1228.42444	-121.17401	863.83557	-1212.21143	-51.98777	807.58130	-833.97327	-257.14902	1412.28442	-748.91180	-294.37198	1212.86560	-737.03986	-284.49289	1091.32422	-719.05402	-270.02029	971.81268	-748.26245	-212.68019	831.29065	-708.78033	-266.86548	833.97748	-705.29877	-231.00372	757.50946	-1107.10071	-196.44540	968.91650	-887.14142	-186.38411	974.04016	-1073.23987	-353.19479	997.64709	-905.06274	-339.06308	1004.24249	-1164.54749	-236.92020	652.77185	-1144.48193	-214.25285	491.66556	-1143.32117	-369.56793	296.81525	-1111.40649	-464.08081	150.55623	-1060.79968	-502.08075	151.76820	-1129.21741	-360.22092	54.16368	-833.95337	-246.07825	640.59625	-856.60498	-245.67577	514.20209	-866.49384	-283.63144	251.03656	-920.67181	-279.41895	65.62440	-967.27411	-315.52322	41.78386	-921.99146	-122.07444	32.28181	-978.50458	-291.26303	1708.24792															 
119	1.180	-1030.04102	-180.48769	1676.31885	-899.90161	-191.68889	1656.23938	-1046.59753	-311.01135	1620.09705	-918.47284	-321.22107	1604.70605	-994.69733	-315.96704	1461.56848	-988.52832	-359.82913	1134.21765	-993.99078	-207.46219	1381.36926	-1005.61359	-172.43658	1204.84656	-916.61267	-392.29849	1290.83154	-1154.90308	-258.16382	1418.25708	-1228.32507	-248.88770	1216.22205	-1240.42810	-240.10225	1103.49121	-1246.74158	-165.77611	971.81671	-1182.36560	-75.87852	892.61212	-1229.87158	-119.77568	863.05566	-1214.17908	-51.05582	806.15808	-832.89972	-251.91888	1412.74060	-747.62244	-288.47418	1213.33398	-735.82623	-278.27505	1091.76160	-717.87964	-263.37729	972.32733	-747.35980	-205.67337	832.01727	-707.62396	-259.73257	834.49634	-704.29401	-223.53914	758.09033	-1105.56055	-191.88629	969.50775	-885.71826	-182.10471	973.83386	-1072.05823	-348.59445	998.17273	-904.00537	-334.40875	1004.37622	-1163.72546	-230.26013	653.57245	-1143.04773	-206.58047	492.64206	-1141.99683	-357.87073	294.40280	-1110.34448	-448.60675	145.62593	-1059.55298	-486.34012	145.35724	-1129.38696	-341.85016	52.89539	-833.61633	-243.09877	640.53864	-856.06860	-243.89755	514.17786	-866.39636	-283.31729	251.15353	-920.72906	-279.58578	65.65149	-967.27802	-315.65558	41.83055	-921.91840	-122.17377	32.27166	-977.81573	-286.23660	1708.54077															 
120	1.190	-1029.42554	-175.64221	1676.38696	-899.33875	-186.61603	1656.52417	-1045.72644	-306.20978	1620.25977	-917.58276	-316.19467	1605.03906	-993.51355	-311.18961	1461.70947	-987.06189	-355.16263	1134.42358	-993.05975	-202.75668	1381.50122	-1004.51013	-167.88161	1204.99573	-914.97339	-387.56320	1291.13171	-1153.87195	-253.81567	1418.40405	-1227.69031	-245.55321	1216.35022	-1240.18042	-237.15381	1103.63818	-1247.78076	-163.58531	971.47400	-1183.83777	-74.35982	890.98370	-1231.47998	-118.62815	862.15094	-1216.36841	-50.41516	804.51031	-831.85699	-246.73495	1413.14905	-746.35028	-282.66440	1213.71753	-734.60968	-272.20331	1092.14832	-716.78320	-256.81619	972.81006	-746.45874	-198.60670	832.72095	-706.35498	-252.83113	835.10797	-703.52075	-216.17227	758.69312	-1104.11707	-187.13036	970.09058	-884.41345	-177.67641	973.84302	-1071.01111	-344.03003	998.50513	-902.90668	-330.13779	1004.59412	-1162.98364	-223.71719	654.30920	-1141.83398	-199.04005	493.55881	-1140.88208	-346.12064	291.80319	-1109.32190	-432.66116	140.47498	-1058.29431	-470.11502	138.72968	-1129.51709	-322.89075	51.63965	-833.12866	-240.38699	640.46545	-855.44885	-241.83990	514.14734	-866.31055	-282.92300	251.23706	-920.74335	-279.75119	65.75775	-967.42188	-315.62112	41.82802	-921.86938	-122.21221	32.23411	-977.11407	-281.26019	1708.77783															 
